<?xml version="1.0" encoding="utf-8"?>
<!-- Generator: Adobe Illustrator 26.2.1, SVG Export Plug-In . SVG Version: 6.00 Build 0)  -->
<svg version="1.1" id="Capa_1" xmlns="http://www.w3.org/2000/svg" xmlns:xlink="http://www.w3.org/1999/xlink" x="0px" y="0px"
	 viewBox="0 0 188.74 188.74" style="enable-background:new 0 0 188.74 188.74;" xml:space="preserve">
<style type="text/css">
	.st0{fill:#CC3362;}
	.st1{fill:#FFFFFF;}
	.st2{fill:#8331A7;}
	.st3{fill:#8A1E41;}
	.st4{fill:#D79DD7;}
</style>
<g>
	<circle class="st2" cx="94.37" cy="94.37" r="94.37"/>
	<path class="st1" d="M148.79,64.89h-22.67V37.68c0-1.2-0.48-2.36-1.33-3.21c-0.85-0.85-2-1.33-3.21-1.33H67.16
		c-1.2,0-2.36,0.48-3.21,1.33c-0.85,0.85-1.33,2-1.33,3.21v27.21H39.95c-3.61,0-7.07,1.44-9.62,3.99c-2.55,2.55-3.99,6.01-3.99,9.62
		v36.28c0,3.61,1.44,7.07,3.99,9.62c2.55,2.55,6.01,3.99,9.62,3.99h22.67v22.67c0,1.2,0.48,2.36,1.33,3.21
		c0.85,0.85,2,1.33,3.21,1.33h54.42c1.2,0,2.36-0.48,3.21-1.33c0.85-0.85,1.33-2,1.33-3.21v-22.67h22.67c3.61,0,7.07-1.44,9.62-3.99
		c2.55-2.55,3.99-6.01,3.99-9.62V78.5c0-3.61-1.44-7.07-3.99-9.62C155.85,66.33,152.39,64.9,148.79,64.89z M71.69,42.22h45.35v22.67
		H71.69V42.22z M117.04,146.52H71.69v-36.28h45.35V146.52z M153.32,114.78c0,1.2-0.48,2.36-1.33,3.21c-0.85,0.85-2,1.33-3.21,1.33
		h-22.67v-9.07h4.53c1.62,0,3.12-0.86,3.93-2.27c0.81-1.4,0.81-3.13,0-4.53c-0.81-1.4-2.31-2.27-3.93-2.27H58.09
		c-1.62,0-3.12,0.86-3.93,2.27c-0.81,1.4-0.81,3.13,0,4.53c0.81,1.4,2.31,2.27,3.93,2.27h4.53v9.07H39.95
		c-1.2,0-2.36-0.48-3.21-1.33c-0.85-0.85-1.33-2-1.33-3.21V78.5c0-1.2,0.48-2.36,1.33-3.21c0.85-0.85,2-1.33,3.21-1.33h108.84
		c1.2,0,2.36,0.48,3.21,1.33c0.85,0.85,1.33,2,1.33,3.21V114.78z"/>
	<path class="st1" d="M142.55,85.63h-7.67c-1.65,0-3-1.35-3-3v0c0-1.65,1.35-3,3-3h7.67c1.65,0,3,1.35,3,3v0
		C145.55,84.28,144.2,85.63,142.55,85.63z"/>
	<path class="st1" d="M126.67,85.63L126.67,85.63c-1.65,0-3-1.35-3-3v0c0-1.65,1.35-3,3-3h0c1.65,0,3,1.35,3,3v0
		C129.67,84.28,128.32,85.63,126.67,85.63z"/>
	<g>
		<circle class="st1" cx="82.4" cy="137.08" r="5.03"/>
		<circle class="st1" cx="94.37" cy="137.08" r="5.03"/>
		<circle class="st1" cx="106.34" cy="137.08" r="5.03"/>
	</g>
	<g>
		<circle class="st1" cx="82.4" cy="112.63" r="5.03"/>
		<circle class="st1" cx="94.37" cy="112.63" r="5.03"/>
		<circle class="st1" cx="106.34" cy="112.63" r="5.03"/>
	</g>
	<g>
		<circle class="st1" cx="82.4" cy="124.85" r="5.03"/>
		<circle class="st1" cx="94.37" cy="124.85" r="5.03"/>
		<circle class="st1" cx="106.34" cy="124.85" r="5.03"/>
	</g>
</g>
</svg>
